<svg width="109" height="109" viewBox="0 0 109 109" fill="none" xmlns="http://www.w3.org/2000/svg">
<path d="M45.1328 80.5259V86.9126C45.1328 94.1935 35.3398 99.686 22.5664 99.686C9.79297 99.686 0 94.1935 0 86.9126V80.5259H45.1328Z" fill="#FEA832"/>
<path d="M45.1328 80.5259V86.9126C45.1328 94.1935 35.3398 99.686 22.5664 99.686V80.5259H45.1328Z" fill="#FE9923"/>
<path d="M45.1328 74.1392V80.5259C45.1328 87.8067 35.3398 93.2993 22.5664 93.2993C9.79297 93.2993 0 87.8067 0 80.5259V74.1392H45.1328Z" fill="#FEA832"/>
<path d="M45.1328 74.1392V80.5259C45.1328 87.8067 35.3398 93.2993 22.5664 93.2993V74.1392H45.1328Z" fill="#FE9923"/>
<path d="M45.1328 74.1392V80.5259C45.1328 87.8067 35.3398 93.2993 22.5664 93.2993C9.79297 93.2993 0 87.8067 0 80.5259V74.1392H45.1328Z" fill="#FEDB41"/>
<path d="M45.1328 74.1392V80.5259C45.1328 87.8067 35.3398 93.2993 22.5664 93.2993V74.1392H45.1328Z" fill="#FFCC33"/>
<path d="M45.1328 67.7524V74.1392C45.1328 81.42 35.3398 86.9126 22.5664 86.9126C9.79297 86.9126 0 81.42 0 74.1392V67.7524H45.1328Z" fill="#FEA832"/>
<path d="M45.1328 67.7524V74.1392C45.1328 81.42 35.3398 86.9126 22.5664 86.9126V67.7524H45.1328Z" fill="#FE9923"/>
<path d="M45.1328 61.3657V67.7524C45.1328 75.0333 35.3398 80.5259 22.5664 80.5259C9.79297 80.5259 0 75.0333 0 67.7524V61.3657H45.1328Z" fill="#FEDB41"/>
<path d="M45.1328 61.3657V67.7524C45.1328 75.0333 35.3398 80.5259 22.5664 80.5259V61.3657H45.1328Z" fill="#FFCC33"/>
<path d="M45.1328 54.979V61.3657C45.1328 68.6466 35.3398 74.1392 22.5664 74.1392C9.79297 74.1392 0 68.6466 0 61.3657V54.979H45.1328Z" fill="#FEA832"/>
<path d="M45.1328 54.979V61.3657C45.1328 68.6466 35.3398 74.1392 22.5664 74.1392V54.979H45.1328Z" fill="#FE9923"/>
<path d="M45.1328 48.5923V54.979C45.1328 62.2599 35.3398 67.7524 22.5664 67.7524C9.79297 67.7524 0 62.2599 0 54.979V48.5923H45.1328Z" fill="#FEDB41"/>
<path d="M45.1328 48.5923V54.979C45.1328 62.2599 35.3398 67.7524 22.5664 67.7524V48.5923H45.1328Z" fill="#FFCC33"/>
<path d="M45.1328 42.2056V48.5923C45.1328 55.8731 35.3398 61.3657 22.5664 61.3657C9.79297 61.3657 0 55.8731 0 48.5923V42.2056H45.1328Z" fill="#FEA832"/>
<path d="M45.1328 42.2056V48.5923C45.1328 55.8731 35.3398 61.3657 22.5664 61.3657V42.2056H45.1328Z" fill="#FE9923"/>
<path d="M45.1328 35.8188V42.2056C45.1328 49.4864 35.3398 54.979 22.5664 54.979C9.79297 54.979 0 49.4864 0 42.2056V35.8188H45.1328Z" fill="#FEDB41"/>
<path d="M45.1328 35.8188V42.2056C45.1328 49.4864 35.3398 54.979 22.5664 54.979V35.8188H45.1328Z" fill="#FFCC33"/>
<path d="M45.1328 29.4321V35.8188C45.1328 43.0997 35.3398 48.5923 22.5664 48.5923C9.79297 48.5923 0 43.0997 0 35.8188V29.4321H45.1328Z" fill="#FEA832"/>
<path d="M45.1328 29.4321V35.8188C45.1328 43.0997 35.3398 48.5923 22.5664 48.5923V29.4321H45.1328Z" fill="#FE9923"/>
<path d="M45.1328 23.0454V29.4321C45.1328 36.713 35.3398 42.2056 22.5664 42.2056C9.79297 42.2056 0 36.713 0 29.4321V23.0454H45.1328Z" fill="#FEDB41"/>
<path d="M45.1328 23.0454V29.4321C45.1328 36.713 35.3398 42.2056 22.5664 42.2056V23.0454H45.1328Z" fill="#FFCC33"/>
<path d="M45.1328 16.6587V23.0454C45.1328 30.3263 35.3398 35.8188 22.5664 35.8188C9.79297 35.8188 0 30.3263 0 23.0454V16.6587H45.1328Z" fill="#FEA832"/>
<path d="M45.1328 16.6587V23.0454C45.1328 30.3263 35.3398 35.8188 22.5664 35.8188V16.6587H45.1328Z" fill="#FE9923"/>
<path d="M22.5664 3.88525C9.79297 3.88525 0 9.37783 0 16.6587C0 23.9396 9.79297 29.4321 22.5664 29.4321C35.3398 29.4321 45.1328 23.9396 45.1328 16.6587C45.1328 9.37783 35.3398 3.88525 22.5664 3.88525Z" fill="#FEDB41"/>
<path d="M45.1328 16.6587C45.1328 23.9396 35.3398 29.4321 22.5664 29.4321V3.88525C35.3398 3.88525 45.1328 9.37783 45.1328 16.6587Z" fill="#FFCC33"/>
<path d="M89.8398 80.5259V86.9126C89.8398 94.1935 80.2598 99.686 67.4863 99.686C54.7129 99.686 45.1328 94.1935 45.1328 86.9126V80.5259H89.8398Z" fill="#FEA832"/>
<path d="M89.8398 80.5259V86.9126C89.8398 94.1935 80.2598 99.686 67.4863 99.686V80.5259H89.8398Z" fill="#FE9923"/>
<path d="M89.8398 74.1392V80.5259C89.8398 87.8067 80.2598 93.2993 67.4863 93.2993C54.7129 93.2993 45.1328 87.8067 45.1328 80.5259V74.1392H89.8398Z" fill="#FEDB41"/>
<path d="M89.8398 74.1392V80.5259C89.8398 87.8067 80.2598 93.2993 67.4863 93.2993V74.1392H89.8398Z" fill="#FFCC33"/>
<path d="M89.8398 67.7524V74.1392C89.8398 81.42 80.2598 86.9126 67.4863 86.9126C54.7129 86.9126 45.1328 81.42 45.1328 74.1392V67.7524H89.8398Z" fill="#FEA832"/>
<path d="M89.8398 67.7524V74.1392C89.8398 81.42 80.2598 86.9126 67.4863 86.9126V67.7524H89.8398Z" fill="#FE9923"/>
<path d="M89.8398 61.3657V67.7524C89.8398 75.0333 80.2598 80.5259 67.4863 80.5259C54.7129 80.5259 45.1328 75.0333 45.1328 67.7524V61.3657H89.8398Z" fill="#FEDB41"/>
<path d="M89.8398 61.3657V67.7524C89.8398 75.0333 80.2598 80.5259 67.4863 80.5259V61.3657H89.8398Z" fill="#FFCC33"/>
<path d="M89.8398 54.979V61.3657C89.8398 68.6466 80.2598 74.1392 67.4863 74.1392C54.7129 74.1392 45.1328 68.6466 45.1328 61.3657V54.979H89.8398Z" fill="#FEA832"/>
<path d="M89.8398 54.979V61.3657C89.8398 68.6466 80.2598 74.1392 67.4863 74.1392V54.979H89.8398Z" fill="#FE9923"/>
<path d="M89.8398 48.5923V54.979C89.8398 62.2599 80.2598 67.7524 67.4863 67.7524C54.7129 67.7524 45.1328 62.2599 45.1328 54.979V48.5923H89.8398Z" fill="#FEDB41"/>
<path d="M89.8398 48.5923V54.979C89.8398 62.2599 80.2598 67.7524 67.4863 67.7524V48.5923H89.8398Z" fill="#FFCC33"/>
<path d="M89.8398 42.2056V48.5923C89.8398 55.8731 80.2598 61.3657 67.4863 61.3657C54.7129 61.3657 45.1328 55.8731 45.1328 48.5923V42.2056H89.8398Z" fill="#FEA832"/>
<path d="M89.8398 42.2056V48.5923C89.8398 55.8731 80.2598 61.3657 67.4863 61.3657V42.2056H89.8398Z" fill="#FE9923"/>
<path d="M89.8398 35.8188V42.2056C89.8398 49.4864 80.2598 54.979 67.4863 54.979C54.7129 54.979 45.1328 49.4864 45.1328 42.2056V35.8188H89.8398Z" fill="#FEDB41"/>
<path d="M89.8398 35.8188V42.2056C89.8398 49.4864 80.2598 54.979 67.4863 54.979V35.8188H89.8398Z" fill="#FFCC33"/>
<path d="M89.8398 29.4321V35.8188C89.8398 43.0997 80.2598 48.5923 67.4863 48.5923C54.7129 48.5923 45.1328 43.0997 45.1328 35.8188V29.4321H89.8398Z" fill="#FEA832"/>
<path d="M89.8398 29.4321V35.8188C89.8398 43.0997 80.2598 48.5923 67.4863 48.5923V29.4321H89.8398Z" fill="#FE9923"/>
<path d="M67.4863 16.6587C54.7129 16.6587 45.1328 22.1513 45.1328 29.4321C45.1328 36.713 54.7129 42.2056 67.4863 42.2056C80.2598 42.2056 89.8398 36.713 89.8398 29.4321C89.8398 22.1513 80.2598 16.6587 67.4863 16.6587Z" fill="#FEDB41"/>
<path d="M89.8398 29.4321C89.8398 36.713 80.2598 42.2056 67.4863 42.2056V16.6587C80.2598 16.6587 89.8398 22.1513 89.8398 29.4321Z" fill="#FFCC33"/>
<path d="M83.4531 54.021C69.3383 54.021 57.9062 65.4534 57.9062 79.5679C57.9062 93.6827 69.3383 105.115 83.4531 105.115C97.568 105.115 109 93.6827 109 79.5679C109 65.4534 97.568 54.021 83.4531 54.021Z" fill="#FEA832"/>
<path d="M109 79.5679C109 93.6827 97.568 105.115 83.4531 105.115V54.021C97.568 54.021 109 65.4534 109 79.5679Z" fill="#FE9923"/>
<path d="M83.4531 60.4077C72.9148 60.4077 64.293 69.03 64.293 79.5679C64.293 90.1062 72.9148 98.728 83.4531 98.728C93.9914 98.728 102.613 90.1062 102.613 79.5679C102.613 69.03 93.9914 60.4077 83.4531 60.4077Z" fill="#FEDB41"/>
<path d="M102.613 79.5679C102.613 90.1062 93.9914 98.728 83.4531 98.728V60.4077C93.9914 60.4077 102.613 69.03 102.613 79.5679Z" fill="#FFCC33"/>
<path d="M93.2095 83.7547C93.2618 83.6499 93.2618 83.4927 93.314 83.3879C94.6197 78.2522 91.4338 72.1733 86.1589 68.9766C88.5091 72.1209 89.5014 75.9988 88.6135 79.3527C88.5091 79.6672 88.4569 79.9292 88.3002 80.2436C88.1957 80.1912 88.039 80.0864 87.8301 79.9816C87.8301 79.9816 82.5552 76.6801 76.8102 70.9155C76.6535 70.7583 79.8916 75.5272 83.4953 79.3527C81.7718 78.4094 77.0191 74.8983 73.9899 72.1209C74.3555 72.7497 74.8256 73.3262 75.2956 73.9026C77.8025 77.0993 81.0928 81.0821 85.0621 84.1216C82.294 85.7985 78.377 85.9558 74.46 84.1216C73.5199 83.6499 72.5798 83.1259 71.7441 82.497C73.4154 85.1697 75.9223 87.4231 79.056 88.7856C82.7641 90.3578 86.42 90.253 89.1358 88.838H89.188C89.2925 88.7856 89.397 88.7332 89.5014 88.6284C90.8071 87.9471 93.4184 87.2659 94.8286 89.9909C95.1419 90.5674 95.8731 87.0038 93.2095 83.7547Z" fill="#FE9923"/>
<path d="M75.8236 32.9129C75.8683 32.823 75.8683 32.688 75.9129 32.598C77.0287 28.1886 74.3062 22.9693 69.7985 20.2246C71.8069 22.9243 72.6549 26.2538 71.8961 29.1334C71.8069 29.4034 71.7622 29.6284 71.6284 29.8983C71.5391 29.8534 71.4052 29.7634 71.2267 29.6734C71.2267 29.6734 66.719 26.8387 61.8096 21.8894C61.6757 21.7544 64.4428 25.8489 67.5223 29.1334C66.0495 28.3235 61.9882 25.3089 59.3996 22.9243C59.712 23.4642 60.1137 23.9591 60.5153 24.4541C62.6576 27.1987 65.4693 30.6182 68.8613 33.2279C66.4958 34.6677 63.1485 34.8027 59.8013 33.2279C58.9979 32.823 58.1946 32.373 57.4805 31.8331C58.9086 34.1278 61.0509 36.0625 63.7287 37.2324C66.8975 38.5822 70.0217 38.4922 72.3424 37.2774H72.3871C72.4763 37.2324 72.5656 37.1874 72.6549 37.0974C73.7706 36.5125 76.0021 35.9276 77.2072 38.2673C77.475 38.7622 78.0998 35.7026 75.8236 32.9129Z" fill="#FE9923"/>
<path d="M30.9037 20.1395C30.9483 20.0495 30.9483 19.9145 30.993 19.8246C32.1087 15.4151 29.3863 10.1958 24.8786 7.45117C26.887 10.1508 27.7349 13.4804 26.9762 16.36C26.887 16.63 26.8423 16.8549 26.7084 17.1249C26.6192 17.0799 26.4853 16.9899 26.3068 16.8999C26.3068 16.8999 21.7991 14.0653 16.8897 9.11595C16.7558 8.98096 19.5229 13.0754 22.6024 16.36C21.1296 15.5501 17.0682 12.5355 14.4797 10.1508C14.7921 10.6907 15.1938 11.1857 15.5954 11.6806C17.7377 14.4253 20.5494 17.8448 23.9413 20.4545C21.5759 21.8943 18.2286 22.0293 14.8813 20.4545C14.078 20.0495 13.2746 19.5996 12.5605 19.0597C13.9887 21.3544 16.131 23.2891 18.8088 24.4589C21.9776 25.8088 25.1017 25.7188 27.4225 24.5039H27.4672C27.5564 24.459 27.6457 24.414 27.7349 24.324C28.8507 23.739 31.0822 23.1541 32.2873 25.4938C32.555 25.9888 33.1799 22.9291 30.9037 20.1395Z" fill="#FE9923"/>
</svg>
