<svg width="328" height="94" viewBox="0 0 328 94" fill="none" xmlns="http://www.w3.org/2000/svg">
<g filter="url(#filter0_d)">
<rect x="10" y="9" width="308" height="74" rx="15" fill="#FCBB30"/>
</g>
<g clip-path="url(#clip0)">
<path d="M58.4358 54.9935C60.3621 52.4818 61.4086 49.4065 61.4138 46.2414V49.7586C61.408 52.8963 60.379 55.9464 58.4827 58.4461V55.0345L58.4358 54.9935Z" fill="#FE9923"/>
<path d="M58.4827 55.0345V58.4461C57.6449 59.5684 56.6588 60.5722 55.5517 61.4301V57.9655L55.5225 57.9303C56.6202 57.0856 57.5999 56.0978 58.4358 54.9935L58.4827 55.0345Z" fill="#FE9923"/>
<path d="M45 31C54.0627 31 61.4138 37.8235 61.4138 46.2414C61.4086 49.4066 60.3621 52.4818 58.4358 54.9935C57.6 56.0978 56.6202 57.0856 55.5225 57.9303C54.6232 58.637 53.6505 59.2444 52.6207 59.7416C51.4978 60.2892 50.3185 60.7119 49.1034 61.0022C46.4054 61.643 43.5946 61.643 40.8965 61.0022C39.6815 60.7119 38.5022 60.2892 37.3793 59.7416C36.3497 59.2444 35.3768 58.637 34.4774 57.9303C33.3797 57.0856 32.4 56.0978 31.5642 54.9935C29.6378 52.4818 28.5913 49.4066 28.5862 46.2414C28.5862 37.8235 35.9372 31 45 31V31Z" fill="#FFCC33"/>
<path d="M55.5516 57.9655V61.4301C54.6454 62.1419 53.6648 62.7531 52.6263 63.2531L52.6206 63.2414V59.7416C53.6505 59.2444 54.6231 58.637 55.5224 57.9303L55.5516 57.9655Z" fill="#FE9923"/>
<path d="M52.6208 63.2414L52.6265 63.2531C51.5099 63.8007 50.3363 64.2231 49.127 64.5134L49.1035 64.4138V61.0022C50.3186 60.7119 51.4979 60.2891 52.6208 59.7416V63.2414Z" fill="#FE9923"/>
<path d="M49.1269 64.5134C47.7753 64.8374 46.39 65.0006 45 65V61.4828C46.3819 61.4854 47.7596 61.3239 49.1034 61.0022V64.4138L49.1269 64.5134Z" fill="#FEA832"/>
<path d="M45 61.4828V65C43.61 65.0006 42.2249 64.8374 40.873 64.5134L40.8965 64.4138V61.0022C42.2404 61.3239 43.618 61.4854 45 61.4828V61.4828Z" fill="#FEA832"/>
<path d="M40.8965 61.0022V64.4138L40.873 64.5134C39.6637 64.2231 38.4901 63.8007 37.3735 63.2531L37.3793 63.2414V59.7416C38.5022 60.2891 39.6814 60.7119 40.8965 61.0022V61.0022Z" fill="#FEA832"/>
<path d="M34.4774 57.9303C35.3768 58.637 36.3497 59.2444 37.3793 59.7416V63.2414L37.3735 63.2531C36.3365 62.751 35.3559 62.1399 34.4482 61.4301V57.9655L34.4774 57.9303Z" fill="#FEA832"/>
<path d="M31.5642 54.9935C32.4 56.0978 33.3797 57.0856 34.4774 57.9303L34.4482 57.9655V61.4301C33.3411 60.5722 32.355 59.5684 31.5172 58.4461V55.0345L31.5642 54.9935Z" fill="#FEA832"/>
<path d="M28.5862 46.2414C28.5913 49.4065 29.6378 52.4818 31.5642 54.9935L31.5172 55.0345V58.4461C29.6209 55.9464 28.5919 52.8963 28.5862 49.7586V46.2414Z" fill="#FEA832"/>
<path d="M57.8963 46.1425C57.8466 39.6675 52.0326 34.463 44.9102 34.5176C37.7878 34.5722 32.0543 39.8653 32.1039 46.3403C32.1536 52.8153 37.9676 58.0198 45.09 57.9652C52.2125 57.9106 57.9459 52.6175 57.8963 46.1425Z" fill="#FEDB41"/>
<path d="M53.0565 53.117L52.255 52.2623C52.94 51.624 53.5204 50.8818 53.9744 50.0629L55.0014 50.6268C54.4888 51.5545 53.8322 52.3951 53.0565 53.117V53.117Z" fill="#FFCC33"/>
<path d="M45.0001 56.2069C38.8584 56.2069 33.8622 51.7365 33.8622 46.2414C33.8622 40.7463 38.8584 36.2759 45.0001 36.2759C51.1418 36.2759 56.138 40.7463 56.138 46.2414H54.9656C54.9656 41.3929 50.4952 37.4483 45.0001 37.4483C39.505 37.4483 35.0346 41.3929 35.0346 46.2414C35.0346 51.0899 39.505 55.0345 45.0001 55.0345C46.9557 55.0439 48.8772 54.5253 50.5619 53.5326L51.1624 54.5405C49.2959 55.6407 47.1669 56.2166 45.0001 56.2069V56.2069Z" fill="#FFCC33"/>
<path d="M49.8845 48.3642C49.9107 48.3117 49.9107 48.233 49.9368 48.1805C50.5905 45.6094 48.9955 42.5659 46.3546 40.9655C47.5313 42.5397 48.0281 44.4812 47.5836 46.1603C47.5313 46.3177 47.5051 46.4489 47.4267 46.6063C47.3744 46.5801 47.2959 46.5276 47.1913 46.4752C47.1913 46.4752 44.5505 44.8223 41.6742 41.9363C41.5958 41.8575 43.2169 44.2451 45.0211 46.1603C44.1582 45.6881 41.7788 43.9302 40.2623 42.5397C40.4453 42.8545 40.6806 43.1431 40.916 43.4317C42.171 45.0322 43.8183 47.0261 45.8055 48.5478C44.4197 49.3874 42.4587 49.4661 40.4976 48.5478C40.027 48.3117 39.5563 48.0493 39.1379 47.7345C39.9747 49.0726 41.2297 50.2007 42.7986 50.8829C44.655 51.67 46.4854 51.6175 47.845 50.9091H47.8712C47.9235 50.8829 47.9758 50.8566 48.0281 50.8042C48.6817 50.4631 49.9891 50.122 50.6951 51.4863C50.852 51.7749 51.2181 49.9908 49.8845 48.3642V48.3642Z" fill="#FE9923"/>
</g>
<defs>
<filter id="filter0_d" x="0" y="0" width="328" height="94" filterUnits="userSpaceOnUse" color-interpolation-filters="sRGB">
<feFlood flood-opacity="0" result="BackgroundImageFix"/>
<feColorMatrix in="SourceAlpha" type="matrix" values="0 0 0 0 0 0 0 0 0 0 0 0 0 0 0 0 0 0 127 0" result="hardAlpha"/>
<feOffset dy="1"/>
<feGaussianBlur stdDeviation="5"/>
<feComposite in2="hardAlpha" operator="out"/>
<feColorMatrix type="matrix" values="0 0 0 0 0 0 0 0 0 0 0 0 0 0 0 0 0 0 0.25 0"/>
<feBlend mode="normal" in2="BackgroundImageFix" result="effect1_dropShadow"/>
<feBlend mode="normal" in="SourceGraphic" in2="effect1_dropShadow" result="shape"/>
</filter>
<clipPath id="clip0">
<rect width="34" height="34" fill="white" transform="translate(28 31)"/>
</clipPath>
</defs>
</svg>
