<svg width="55" height="55" viewBox="0 0 55 55" fill="none" xmlns="http://www.w3.org/2000/svg">
<g clip-path="url(#clip0)">
<path d="M49.2344 38.8131C52.3505 34.75 54.0434 29.7753 54.0517 24.6552V30.3448C54.0424 35.4205 52.3779 40.3545 49.3103 44.3981V38.8793L49.2344 38.8131Z" fill="#FE9923"/>
<path d="M49.3103 38.8793V44.3981C47.9551 46.2136 46.3599 47.8374 44.569 49.2251V43.6207L44.5217 43.5637C46.2974 42.1973 47.8824 40.5994 49.2344 38.8131L49.3103 38.8793Z" fill="#FE9923"/>
<path d="M27.5 0C42.1603 0 54.0517 11.0381 54.0517 24.6552C54.0434 29.7753 52.3505 34.75 49.2344 38.8131C47.8824 40.5994 46.2974 42.1973 44.5217 43.5637C43.0669 44.7069 41.4935 45.6895 39.8276 46.4938C38.0111 47.3795 36.1034 48.0634 34.1379 48.5329C29.7734 49.5696 25.2265 49.5696 20.862 48.5329C18.8965 48.0634 16.9888 47.3795 15.1724 46.4938C13.5069 45.6895 11.9331 44.7069 10.4782 43.5637C8.70253 42.1973 7.11759 40.5994 5.76556 38.8131C2.6494 34.75 0.956577 29.7753 0.948242 24.6552C0.948242 11.0381 12.8397 0 27.5 0V0Z" fill="#FFCC33"/>
<path d="M44.569 43.6207V49.2251C43.1031 50.3767 41.5168 51.3652 39.8369 52.1741L39.8276 52.1552V46.4937C41.4936 45.6895 43.067 44.7069 44.5218 43.5637L44.569 43.6207Z" fill="#FE9923"/>
<path d="M39.8276 52.1552L39.8369 52.1741C38.0306 53.0599 36.1322 53.7433 34.1759 54.2128L34.1379 54.0517V48.5329C36.1035 48.0634 38.0111 47.3795 39.8276 46.4937V52.1552Z" fill="#FE9923"/>
<path d="M34.1759 54.2128C31.9895 54.737 29.7485 55.0009 27.5 55V49.3103C29.7355 49.3145 31.964 49.0534 34.1379 48.5329V54.0517L34.1759 54.2128Z" fill="#FEA832"/>
<path d="M27.5001 49.3103V55C25.2517 55.0009 23.0111 54.737 20.8242 54.2128L20.8622 54.0517V48.5329C23.0361 49.0534 25.2646 49.3145 27.5001 49.3103Z" fill="#FEA832"/>
<path d="M20.862 48.5329V54.0517L20.824 54.2128C18.8677 53.7433 16.9693 53.0599 15.1631 52.1741L15.1723 52.1552V46.4937C16.9888 47.3795 18.8965 48.0634 20.862 48.5329Z" fill="#FEA832"/>
<path d="M10.4784 43.5637C11.9332 44.7069 13.507 45.6895 15.1725 46.4937V52.1552L15.1633 52.1741C13.4857 51.362 11.8994 50.3734 10.4312 49.2251V43.6207L10.4784 43.5637Z" fill="#FEA832"/>
<path d="M5.76563 38.8131C7.11767 40.5994 8.7026 42.1973 10.4783 43.5637L10.4311 43.6207V49.2251C8.64009 47.8374 7.04497 46.2136 5.6897 44.3981V38.8793L5.76563 38.8131Z" fill="#FEA832"/>
<path d="M0.948242 24.6552C0.956577 29.7753 2.6494 34.75 5.76556 38.8131L5.68962 38.8793V44.3981C2.62208 40.3545 0.957503 35.4205 0.948242 30.3448V24.6552Z" fill="#FEA832"/>
<path d="M48.3615 24.4952C48.2812 14.0209 38.8762 5.60185 27.3546 5.69021C15.833 5.77856 6.55828 14.3409 6.6386 24.8152C6.71892 35.2894 16.1239 43.7085 27.6455 43.6201C39.1671 43.5318 48.4418 34.9694 48.3615 24.4952Z" fill="#FEDB41"/>
<path d="M40.5323 35.7775L39.2358 34.3949C40.3439 33.3624 41.2829 32.1618 42.0172 30.837L43.6786 31.7492C42.8493 33.2499 41.7871 34.6098 40.5323 35.7775Z" fill="#FFCC33"/>
<path d="M27.4999 40.7759C17.5648 40.7759 9.48267 33.5443 9.48267 24.6552C9.48267 15.766 17.5648 8.53448 27.4999 8.53448C37.435 8.53448 45.5172 15.766 45.5172 24.6552H43.6206C43.6206 16.812 36.3891 10.431 27.4999 10.431C18.6107 10.431 11.3792 16.812 11.3792 24.6552C11.3792 32.4984 18.6107 38.8793 27.4999 38.8793C30.6633 38.8946 33.7716 38.0556 36.497 36.4498L37.4684 38.0801C34.449 39.86 31.005 40.7916 27.4999 40.7759Z" fill="#FFCC33"/>
<path d="M35.4015 28.0891C35.4438 28.0042 35.4438 27.8769 35.4861 27.792C36.5435 23.6328 33.9634 18.7096 29.6914 16.1207C31.5948 18.6672 32.3984 21.8078 31.6794 24.524C31.5948 24.7787 31.5525 24.9909 31.4256 25.2456C31.341 25.2031 31.2141 25.1182 31.0449 25.0333C31.0449 25.0333 26.7729 22.3595 22.1202 17.691C21.9933 17.5637 24.6157 21.4258 27.5342 24.524C26.1384 23.7601 22.2894 20.9166 19.8361 18.6672C20.1322 19.1765 20.5129 19.6433 20.8936 20.1102C22.9238 22.6991 25.5885 25.9246 28.8031 28.3862C26.5614 29.7443 23.3891 29.8716 20.2168 28.3862C19.4554 28.0042 18.6941 27.5798 18.0173 27.0705C19.3708 29.235 21.4011 31.06 23.939 32.1635C26.9421 33.4367 29.9029 33.3518 32.1023 32.2059H32.1446C32.2292 32.1635 32.3138 32.121 32.3984 32.0361C33.4558 31.4844 35.5707 30.9327 36.7127 33.1396C36.9665 33.6065 37.5587 30.7205 35.4015 28.0891Z" fill="#FE9923"/>
</g>
<defs>
<clipPath id="clip0">
<rect width="55" height="55" rx="15" fill="white"/>
</clipPath>
</defs>
</svg>
